<svg
  id="svg"
  xmlns="http://www.w3.org/2000/svg"
  width="400"
  height="432.3603002502085"
  viewBox="0, 0, 400,432.3603002502085"
>
  <g id="svgg">
    <path
      id="path0"
      d="M327.606 0.223 C 297.377 3.654,278.723 22.278,274.198 53.545 C 272.513 65.192,271.939 109.190,273.361 117.765 C 273.438 118.224,273.596 119.575,273.714 120.767 C 276.864 152.722,294.566 173.168,322.936 177.620 C 323.578 177.720,324.629 177.884,325.271 177.983 C 335.776 179.601,349.863 178.368,359.940 174.950 C 365.076 173.208,372.211 169.691,374.775 167.640 C 375.233 167.273,376.025 166.672,376.534 166.305 C 379.853 163.913,385.222 158.557,387.067 155.796 C 397.021 140.906,399.652 128.742,399.662 97.572 C 399.666 85.417,399.597 83.453,399.147 82.810 L 398.628 82.068 369.475 82.068 L 340.321 82.068 339.802 82.810 C 339.089 83.828,339.039 102.904,339.747 103.837 C 340.158 104.378,341.330 104.421,355.833 104.425 C 367.835 104.429,371.670 104.529,372.310 104.855 L 373.144 105.280 373.119 111.272 C 373.056 126.542,369.329 138.223,362.417 144.811 C 349.379 157.239,327.304 157.830,312.260 146.154 C 301.737 137.987,299.177 126.148,299.411 86.739 C 299.641 47.810,302.727 37.556,317.028 28.186 C 318.351 27.319,319.828 26.337,320.310 26.002 C 326.003 22.055,341.049 21.247,350.070 24.403 C 355.223 26.206,360.887 30.126,363.987 34.036 C 365.243 35.620,368.307 39.982,368.307 40.187 C 368.307 40.554,371.193 45.268,371.628 45.611 C 372.702 46.457,373.823 46.193,379.316 43.799 C 379.958 43.519,381.009 43.103,381.651 42.873 C 384.550 41.838,393.553 37.903,394.078 37.441 C 396.205 35.571,387.876 21.786,381.051 15.878 C 380.188 15.132,379.408 14.442,379.316 14.345 C 378.418 13.398,374.092 10.266,371.141 8.426 C 367.521 6.171,358.587 2.662,353.962 1.680 C 348.097 0.435,346.221 0.262,337.615 0.178 C 332.752 0.130,328.249 0.150,327.606 0.223 M108.757 105.180 C 108.666 105.264,103.937 105.444,98.249 105.580 C 92.560 105.716,84.604 105.943,80.567 106.084 C 76.530 106.225,56.751 106.321,36.614 106.298 L -0.000 106.255 -0.000 113.845 C -0.000 118.019,0.113 121.435,0.250 121.436 C 0.646 121.440,4.796 122.169,10.676 123.269 C 12.235 123.561,14.787 124.022,16.347 124.292 C 33.512 127.271,38.295 133.327,40.180 154.462 C 40.752 160.875,40.926 369.963,40.366 377.712 C 40.020 382.500,39.974 382.890,39.163 387.990 C 37.511 398.369,33.215 404.841,26.127 407.630 C 24.025 408.458,19.988 409.421,14.012 410.522 C 11.351 411.012,8.874 411.474,8.507 411.549 C 6.789 411.897,0.520 413.011,0.275 413.011 C 0.124 413.011,-0.000 416.471,-0.000 420.701 L -0.000 428.392 4.921 428.203 C 7.627 428.099,11.493 427.943,13.511 427.857 C 15.530 427.771,20.709 427.619,25.021 427.519 C 29.333 427.419,34.212 427.260,35.863 427.166 C 39.458 426.960,89.999 426.959,91.910 427.165 C 92.644 427.243,97.448 427.399,102.585 427.511 C 107.723 427.622,113.128 427.779,114.595 427.860 C 116.063 427.940,119.854 428.097,123.019 428.208 L 128.774 428.411 128.774 420.897 C 128.774 416.765,128.661 413.316,128.524 413.233 C 128.386 413.150,127.523 412.984,126.606 412.863 C 125.688 412.742,123.887 412.499,122.602 412.323 C 121.318 412.147,119.741 411.931,119.099 411.844 C 118.457 411.756,115.830 411.394,113.261 411.039 C 110.692 410.684,106.714 410.142,104.420 409.833 C 88.890 407.746,84.062 402.546,81.509 385.154 C 80.973 381.501,80.912 376.856,80.816 331.983 L 80.711 282.814 83.308 283.022 C 89.797 283.540,100.461 283.865,111.648 283.887 L 120.042 283.903 121.739 286.723 C 122.673 288.273,123.436 289.628,123.436 289.733 C 123.436 289.839,124.017 290.859,124.727 292.002 C 125.437 293.144,126.513 294.979,127.118 296.080 C 128.391 298.395,129.990 301.195,130.453 301.918 C 130.629 302.193,132.424 305.196,134.442 308.590 C 139.376 316.889,140.162 318.192,142.699 322.269 C 143.898 324.195,145.046 326.074,145.250 326.443 C 145.454 326.813,145.935 327.564,146.318 328.111 C 146.701 328.659,147.115 329.333,147.237 329.608 C 147.360 329.883,148.056 331.009,148.783 332.110 C 149.510 333.211,150.513 334.787,151.011 335.613 C 152.380 337.880,157.704 346.025,162.427 353.078 C 164.744 356.538,166.864 359.709,167.139 360.125 C 167.777 361.089,170.409 364.925,172.068 367.306 C 174.835 371.278,176.044 372.967,178.957 376.930 C 180.623 379.196,182.210 381.386,182.485 381.797 C 182.761 382.208,183.389 383.057,183.881 383.683 C 184.373 384.309,185.349 385.581,186.049 386.511 C 187.610 388.582,189.733 391.283,192.160 394.286 C 193.169 395.535,194.520 397.211,195.163 398.013 C 195.805 398.814,196.555 399.705,196.831 399.994 C 197.106 400.283,197.994 401.341,198.805 402.345 C 201.009 405.075,206.954 410.836,210.342 413.523 C 211.259 414.250,212.192 414.996,212.415 415.179 C 217.859 419.654,229.219 425.413,238.032 428.166 C 250.690 432.120,268.803 433.563,280.210 431.527 C 284.722 430.721,289.443 429.475,290.863 428.715 C 291.556 428.344,291.576 428.139,291.576 421.554 L 291.576 414.775 288.490 414.547 C 280.141 413.930,269.971 410.103,261.051 404.220 C 256.382 401.142,256.552 401.259,255.410 400.310 C 254.843 399.838,254.063 399.238,253.677 398.975 C 251.522 397.510,242.735 389.142,239.516 385.488 C 238.869 384.754,237.140 382.802,235.675 381.151 C 234.209 379.500,232.563 377.611,232.018 376.955 C 231.472 376.299,229.526 373.972,227.693 371.784 C 225.860 369.596,224.111 367.506,223.807 367.139 C 223.503 366.772,222.300 365.334,221.135 363.943 C 219.969 362.552,218.641 360.915,218.182 360.307 C 217.723 359.698,216.297 357.888,215.013 356.283 C 213.728 354.679,212.452 353.029,212.177 352.618 C 211.902 352.207,211.064 351.102,210.316 350.164 C 209.568 349.225,208.145 347.331,207.155 345.955 C 206.164 344.579,205.200 343.274,205.012 343.056 C 204.824 342.837,204.295 342.118,203.837 341.457 C 203.378 340.797,202.627 339.754,202.168 339.140 C 201.710 338.526,200.734 337.171,200.000 336.128 C 199.266 335.086,198.140 333.507,197.498 332.621 C 196.856 331.734,196.144 330.731,195.916 330.392 C 195.689 330.052,194.874 328.874,194.106 327.773 C 191.804 324.475,188.503 319.632,186.261 316.264 C 185.101 314.520,184.022 312.935,183.864 312.740 C 183.706 312.545,183.383 312.023,183.146 311.581 C 182.909 311.139,181.726 309.272,180.517 307.432 C 179.308 305.592,178.168 303.825,177.983 303.506 C 177.799 303.187,176.822 301.619,175.813 300.022 C 174.804 298.425,173.658 296.585,173.266 295.932 C 172.874 295.280,171.561 293.118,170.347 291.129 C 169.133 289.140,168.140 287.461,168.140 287.398 C 168.140 287.335,167.427 286.087,166.555 284.625 C 165.166 282.293,163.296 278.951,163.053 278.364 C 163.007 278.253,165.146 277.516,167.807 276.725 C 174.500 274.735,175.400 274.387,181.651 271.373 C 187.350 268.626,191.547 266.083,197.147 261.983 C 201.976 258.448,210.043 250.892,213.218 246.932 C 214.200 245.706,215.095 244.629,215.207 244.537 C 215.318 244.445,216.335 243.094,217.465 241.535 C 218.596 239.975,219.671 238.518,219.853 238.296 C 220.035 238.074,220.183 237.749,220.183 237.573 C 220.183 237.397,220.306 237.203,220.455 237.142 C 220.964 236.934,224.419 230.973,226.628 226.491 C 236.424 206.616,238.145 184.869,231.680 162.636 C 230.003 156.868,224.572 145.513,222.109 142.623 C 221.951 142.437,221.490 141.816,221.086 141.243 C 218.163 137.101,211.989 130.496,208.841 128.145 C 208.198 127.665,207.298 126.926,206.839 126.502 C 206.380 126.079,204.579 124.791,202.836 123.640 C 194.844 118.365,186.317 114.274,178.124 111.782 C 176.211 111.200,174.311 110.586,173.901 110.418 C 170.938 109.199,159.712 107.062,149.986 105.866 C 145.839 105.356,109.232 104.747,108.757 105.180 M134.112 129.077 C 168.090 133.349,186.961 151.198,190.835 182.725 C 191.221 185.862,191.374 198.520,191.049 200.334 C 190.950 200.884,190.769 202.160,190.648 203.169 C 189.353 213.923,183.939 227.408,178.056 234.529 C 173.993 239.447,170.922 242.586,168.140 244.664 C 167.131 245.418,166.230 246.110,166.138 246.203 C 165.410 246.940,157.561 251.730,156.289 252.213 C 155.834 252.386,154.748 252.840,153.877 253.221 C 153.006 253.603,151.993 254.046,151.626 254.206 C 147.305 256.091,139.838 258.144,134.112 259.021 C 132.369 259.288,130.342 259.612,129.608 259.742 C 127.644 260.088,99.967 260.190,94.912 259.871 C 92.527 259.720,88.361 259.413,85.655 259.189 L 80.734 258.781 80.734 194.157 L 80.734 129.533 82.485 129.330 C 83.449 129.218,87.915 129.027,92.410 128.905 C 96.906 128.783,100.659 128.614,100.751 128.528 C 101.073 128.227,131.311 128.725,134.112 129.077 "
      stroke="none"
      fill="#000000"
      fill-rule="evenodd"
    ></path>
  </g>
</svg>
