<svg xmlns="http://www.w3.org/2000/svg" viewBox="0 0 860 440" font-family="-apple-system, BlinkMacSystemFont, 'Segoe UI', Roboto, 'Helvetica Neue', Arial, sans-serif" role="img" aria-labelledby="t d">
<title id="t">Merged pull requests per week in the lightwork repo</title>
<desc id="d">Bar chart of merged PRs per week, May 4 through June 11, 2026. Weekly totals: 17, 263, 354, 161, 175, and 30 in the partial final week.</desc>
<text x="70" y="24" font-size="15" font-weight="600" fill="#737373">Merged PRs per week — lightwork</text>
<line x1="70" y1="360.0" x2="830" y2="360.0" stroke="#737373" stroke-opacity="0.25" stroke-width="1"/><text x="60" y="364.0" text-anchor="end" font-size="14" fill="#737373">0</text><line x1="70" y1="280.0" x2="830" y2="280.0" stroke="#737373" stroke-opacity="0.25" stroke-width="1"/><text x="60" y="284.0" text-anchor="end" font-size="14" fill="#737373">100</text><line x1="70" y1="200.0" x2="830" y2="200.0" stroke="#737373" stroke-opacity="0.25" stroke-width="1"/><text x="60" y="204.0" text-anchor="end" font-size="14" fill="#737373">200</text><line x1="70" y1="120.0" x2="830" y2="120.0" stroke="#737373" stroke-opacity="0.25" stroke-width="1"/><text x="60" y="124.0" text-anchor="end" font-size="14" fill="#737373">300</text><line x1="70" y1="40.0" x2="830" y2="40.0" stroke="#737373" stroke-opacity="0.25" stroke-width="1"/><text x="60" y="44.0" text-anchor="end" font-size="14" fill="#737373">400</text><rect x="94.1" y="346.4" width="78.5" height="13.6" fill="#C2410C" rx="2"/><text x="133.3" y="338.4" text-anchor="middle" font-size="15" font-weight="600" fill="#737373">17</text><text x="133.3" y="382" text-anchor="middle" font-size="14" fill="#737373">May 4</text><rect x="220.7" y="149.6" width="78.5" height="210.4" fill="#C2410C" rx="2"/><text x="260.0" y="141.6" text-anchor="middle" font-size="15" font-weight="600" fill="#737373">263</text><text x="260.0" y="382" text-anchor="middle" font-size="14" fill="#737373">May 11</text><rect x="347.4" y="76.8" width="78.5" height="283.2" fill="#C2410C" rx="2"/><text x="386.7" y="68.8" text-anchor="middle" font-size="15" font-weight="600" fill="#737373">354</text><text x="386.7" y="382" text-anchor="middle" font-size="14" fill="#737373">May 18</text><rect x="474.1" y="231.2" width="78.5" height="128.8" fill="#C2410C" rx="2"/><text x="513.3" y="223.2" text-anchor="middle" font-size="15" font-weight="600" fill="#737373">161</text><text x="513.3" y="382" text-anchor="middle" font-size="14" fill="#737373">May 25</text><rect x="600.7" y="220.0" width="78.5" height="140.0" fill="#C2410C" rx="2"/><text x="640.0" y="212.0" text-anchor="middle" font-size="15" font-weight="600" fill="#737373">175</text><text x="640.0" y="382" text-anchor="middle" font-size="14" fill="#737373">Jun 1</text><rect x="727.4" y="336.0" width="78.5" height="24.0" fill="#C2410C" rx="2"/><text x="766.7" y="328.0" text-anchor="middle" font-size="15" font-weight="600" fill="#737373">30</text><text x="766.7" y="382" text-anchor="middle" font-size="14" fill="#737373">Jun 8*</text><text x="70" y="410" font-size="13" fill="#737373" font-style="italic">* partial week (through Jun 11)</text>
</svg>