<svg xmlns="http://www.w3.org/2000/svg" viewBox="0 0 860 470" font-family="-apple-system, BlinkMacSystemFont, 'Segoe UI', Roboto, 'Helvetica Neue', Arial, sans-serif" role="img" aria-labelledby="t d">
<title id="t">Merged pull requests per week in the lightwork repo</title>
<desc id="d">Stacked bar chart of merged PRs per week, May 4 through June 11, 2026. Weekly totals: 17, 263, 354, 161, 175, 30. From the week of May 18 onward, the majority of merged PRs were opened by shipyard workers: 273 of 354, then 120 of 161, then 121 of 175.</desc>

  <rect x="70" y="14" width="14" height="14" fill="#C2410C" rx="2"/>
  <text x="90" y="26" font-size="14" fill="#737373">merged PRs opened by shipyard workers</text>
  <rect x="400" y="14" width="14" height="14" fill="#A3A3A3" rx="2"/>
  <text x="420" y="26" font-size="14" fill="#737373">merged PRs from human-driven sessions</text>

<line x1="70" y1="380.0" x2="830" y2="380.0" stroke="#737373" stroke-opacity="0.25" stroke-width="1"/><text x="60" y="384.0" text-anchor="end" font-size="14" fill="#737373">0</text><line x1="70" y1="297.5" x2="830" y2="297.5" stroke="#737373" stroke-opacity="0.25" stroke-width="1"/><text x="60" y="301.5" text-anchor="end" font-size="14" fill="#737373">100</text><line x1="70" y1="215.0" x2="830" y2="215.0" stroke="#737373" stroke-opacity="0.25" stroke-width="1"/><text x="60" y="219.0" text-anchor="end" font-size="14" fill="#737373">200</text><line x1="70" y1="132.5" x2="830" y2="132.5" stroke="#737373" stroke-opacity="0.25" stroke-width="1"/><text x="60" y="136.5" text-anchor="end" font-size="14" fill="#737373">300</text><line x1="70" y1="50.0" x2="830" y2="50.0" stroke="#737373" stroke-opacity="0.25" stroke-width="1"/><text x="60" y="54.0" text-anchor="end" font-size="14" fill="#737373">400</text>
<rect x="94.1" y="366.0" width="78.5" height="14.0" fill="#A3A3A3" rx="2"/><text x="133.3" y="358.0" text-anchor="middle" font-size="15" font-weight="600" fill="#737373">17</text><text x="133.3" y="402" text-anchor="middle" font-size="14" fill="#737373">May 4</text><rect x="220.7" y="163.0" width="78.5" height="217.0" fill="#A3A3A3" rx="2"/><text x="260.0" y="155.0" text-anchor="middle" font-size="15" font-weight="600" fill="#737373">263</text><text x="260.0" y="402" text-anchor="middle" font-size="14" fill="#737373">May 11</text><rect x="347.4" y="313.2" width="78.5" height="66.8" fill="#A3A3A3" rx="2"/><rect x="347.4" y="87.9" width="78.5" height="225.2" fill="#C2410C" rx="2"/><text x="386.7" y="79.9" text-anchor="middle" font-size="15" font-weight="600" fill="#737373">354</text><text x="386.7" y="402" text-anchor="middle" font-size="14" fill="#737373">May 18</text><rect x="474.1" y="346.2" width="78.5" height="33.8" fill="#A3A3A3" rx="2"/><rect x="474.1" y="247.2" width="78.5" height="99.0" fill="#C2410C" rx="2"/><text x="513.3" y="239.2" text-anchor="middle" font-size="15" font-weight="600" fill="#737373">161</text><text x="513.3" y="402" text-anchor="middle" font-size="14" fill="#737373">May 25</text><rect x="600.7" y="335.4" width="78.5" height="44.6" fill="#A3A3A3" rx="2"/><rect x="600.7" y="235.6" width="78.5" height="99.8" fill="#C2410C" rx="2"/><text x="640.0" y="227.6" text-anchor="middle" font-size="15" font-weight="600" fill="#737373">175</text><text x="640.0" y="402" text-anchor="middle" font-size="14" fill="#737373">Jun 1</text><rect x="727.4" y="363.5" width="78.5" height="16.5" fill="#A3A3A3" rx="2"/><rect x="727.4" y="355.2" width="78.5" height="8.2" fill="#C2410C" rx="2"/><text x="766.7" y="347.2" text-anchor="middle" font-size="15" font-weight="600" fill="#737373">30</text><text x="766.7" y="402" text-anchor="middle" font-size="14" fill="#737373">Jun 8*</text>
<text x="70" y="428" font-size="13" fill="#737373" font-style="italic">* partial week (through Jun 11).</text>
<text x="70" y="448" font-size="13" fill="#737373" font-style="italic">The shipyard label exists as of May 18 &#8212; earlier PRs were Claude Code sessions I drove by hand.</text>
</svg>